<?xml version="1.0" encoding="iso-8859-1"?>
<!-- Generator: Adobe Illustrator 17.0.1, SVG Export Plug-In . SVG Version: 6.00 Build 0)  -->
<!DOCTYPE svg PUBLIC "-//W3C//DTD SVG 1.1//EN" "http://www.w3.org/Graphics/SVG/1.1/DTD/svg11.dtd">
<svg version="1.1" id="Layer_1" xmlns="http://www.w3.org/2000/svg" xmlns:xlink="http://www.w3.org/1999/xlink" x="0px" y="0px"
	 width="111.07px" height="118.138px" viewBox="0 0 111.07 118.138" style="enable-background:new 0 0 111.07 118.138;"
	 xml:space="preserve">
<g>
	<g>
		<g>
			<path style="fill:#92278F;" d="M36.662,61.998c-1.054,0-2.02-0.531-2.584-1.422c-0.438-0.689-0.58-1.508-0.4-2.305
				c0.179-0.797,0.657-1.477,1.347-1.913L64.465,37.71c0.49-0.311,1.055-0.476,1.634-0.476c1.055,0,2.021,0.532,2.584,1.422
				c0.438,0.689,0.58,1.508,0.4,2.305c-0.179,0.797-0.657,1.477-1.347,1.913l-29.44,18.649
				C37.804,61.834,37.24,61.998,36.662,61.998z"/>
		</g>
	</g>
</g>
<g>
	<g>
		<g>
			<path style="fill:#92278F;" d="M74.919,47.889c-7.357,0-13.343-5.985-13.343-13.343s5.985-13.343,13.343-13.343
				s13.343,5.985,13.343,13.343S82.276,47.889,74.919,47.889z M74.919,27.318c-3.985,0-7.229,3.243-7.229,7.229
				s3.243,7.229,7.229,7.229s7.229-3.243,7.229-7.229S78.904,27.318,74.919,27.318z"/>
		</g>
	</g>
</g>
<g>
	<g>
		<g>
			<path style="fill:#92278F;" d="M75.765,103.454c-7.357,0-13.343-5.985-13.343-13.343s5.985-13.343,13.343-13.343
				s13.343,5.985,13.343,13.343S83.123,103.454,75.765,103.454z M75.765,82.883c-3.985,0-7.229,3.243-7.229,7.229
				s3.243,7.229,7.229,7.229s7.229-3.243,7.229-7.229S79.751,82.883,75.765,82.883z"/>
		</g>
	</g>
</g>
<g>
	<g>
		<g>
			<path style="fill:#92278F;" d="M26.234,77.136c-7.357,0-13.343-5.985-13.343-13.343S18.877,50.45,26.234,50.45
				s13.343,5.985,13.343,13.343S33.591,77.136,26.234,77.136z M26.234,56.565c-3.985,0-7.229,3.243-7.229,7.229
				s3.243,7.229,7.229,7.229s7.229-3.243,7.229-7.229S30.219,56.565,26.234,56.565z"/>
		</g>
	</g>
</g>
<g>
	<g>
		<g>
			<path style="fill:#92278F;" d="M66.099,87.227c-0.58,0-1.146-0.165-1.636-0.477L35.024,68.104
				c-0.69-0.438-1.168-1.117-1.347-1.913c-0.179-0.797-0.037-1.616,0.4-2.306c0.564-0.89,1.53-1.421,2.585-1.421
				c0.578,0,1.143,0.164,1.634,0.475l29.44,18.648c0.689,0.437,1.168,1.116,1.347,1.913c0.18,0.797,0.037,1.615-0.4,2.306
				C68.119,86.696,67.153,87.227,66.099,87.227z"/>
		</g>
	</g>
</g>
</svg>
